# xmcd
# Copyright (C) 1995-1998 Ti Kan
#
# Track frame offsets:
#       150
#       90670
#       159202
#       226066
#
# Disc length: 3611 seconds
#
# Revision: 0
# Processed by: cddbd v1.5.2PL0 Copyright (c) Steve Scherf et al.
# Submitted via: CD-Transfer v1.0
#
DISCID=1c0e1904
DTITLE=Michael Friedel - 
DYEAR=1900
DGENRE=
TTITLE0=Hitclub 20.06.10 - 001
TTITLE1=Hitclub 20.06.10 - 002
TTITLE2=Hitclub 20.06.10 - 003
TTITLE3=Hitclub 20.06.10 - 004
EXTD=
EXTT0=
EXTT1=
EXTT2=
EXTT3=
PLAYORDER=
